<svg width="28.754" height="28.754" viewBox="0 0 32 32"><circle cx="16" cy="16" r="15.5" fill="#414141" stroke="#F5F5F5"/><path fill="#F5F5F5" d="M5.45 20.38a3.665 3.665 0 0 1 3.362-5.108c.26 0 .503.033.747.084l-.783 2.569-.402.78c-.3.586.576 1.037.877.452l.422-.82.033-.081.79-2.582a3.668 3.668 0 0 1 1.68 4.706 3.66 3.66 0 0 1-6.726 0Zm8.632-5.134c-1.298-1.468-2.562-2.9-2.572-2.908l.121-.34h7.118l-.975 3.248-.794 2.662-.04.002a1.03 1.03 0 0 0-.427.09l-2.43-2.754Zm3.791 3.143.93-3.143.775-2.621 1.128 2.387a4.634 4.634 0 0 0-2.113 3.377h-.72Zm1.973 1.99a3.66 3.66 0 0 1-.269-1.003h3.503c.417 0 .611-.452.362-.967-.299-.618-.776-1.605-1.415-2.937l.002-.007a3.66 3.66 0 1 1 1.174 7.127 3.653 3.653 0 0 1-3.357-2.213Zm2.456-1.99h-2.718a3.68 3.68 0 0 1 1.54-2.466l1.178 2.466Zm-16.32-3.143a4.64 4.64 0 0 0-1.816 3.686c0 .505.08.992.23 1.448a4.668 4.668 0 0 0 2.65 2.852 4.657 4.657 0 0 0 3.532 0h.001a4.66 4.66 0 0 0 2.65-2.852c.15-.457.23-.943.23-1.448 0-1.507-.715-2.84-1.825-3.686a4.638 4.638 0 0 0-.854-.517l.397-1.283 1.59 1.8 3.15 3.568c-.007.043-.005.08-.005.126a1.028 1.028 0 0 0 1.96.436h.707c.033.348.103.683.208 1.004h.001a4.652 4.652 0 0 0 2.648 2.852 4.657 4.657 0 0 0 3.533 0h.002a4.66 4.66 0 0 0 2.648-2.852h.001a4.66 4.66 0 0 0-1.586-5.134 4.634 4.634 0 0 0-2.83-.961 4.63 4.63 0 0 0-1.617.289c-.454-.954-.965-2.051-1.545-3.281a.268.268 0 0 0-.053-.07L20.37 10h.764c.658 0 .656-1-.002-1h-2.519c-.657 0-.655 1 .002 1l.745-.001-.322 1.006-7.114-.006.496-1.611h1.291c.657 0 .657-.988 0-.988h-1.657c-.164 0-.423.192-.472.35l-1.726 5.644a4.763 4.763 0 0 0-1.043-.11 4.629 4.629 0 0 0-2.83.962Z"/></svg>