<svg data-testid="doors" style="overflow:hidden;width:90px;height:90px" viewBox="0 0 150 150"><path fill="#4C4C4E" d="M150 74.998C150 116.419 116.424 150 75 150c-41.419 0-75-33.581-75-75.002C0 33.576 33.581 0 75 0c41.424 0 75 33.576 75 74.998"/><g fill="#FEFEFE"><path d="M105.436 42H77v66h28.436c3.791 0 7.564-2.91 7.564-6.652V47.989c0-3.768-3.773-5.989-7.564-5.989zM105 70.824c0 2.613-1.002 4.176-3.614 4.176H86.723C84.086 75 82 73.437 82 70.824V52.243C82 49.603 84.086 46 86.723 46h14.663c2.612 0 3.614 3.603 3.614 6.243v18.581zM37 47.989v53.358c0 3.742 2.773 6.652 6.566 6.652H72V42H43.566C39.773 42 37 44.221 37 47.989zm8 4.254c0-2.64.002-6.243 2.615-6.243h14.661C64.914 46 67 49.603 67 52.243v18.581C67 73.437 64.914 75 62.276 75H47.615C45.002 75 45 73.437 45 70.824V52.243z" class="css-1lcxx88-Doors"/></g></svg>