<?xml version="1.0" encoding="UTF-8"?>
<svg width="32px" height="32px" viewBox="0 0 32 32" version="1.1" xmlns="http://www.w3.org/2000/svg" xmlns:xlink="http://www.w3.org/1999/xlink">
    <!-- Generator: Sketch 51.1 (57501) - http://www.bohemiancoding.com/sketch -->
    <title>Attention_night</title>
    <desc>Created with Sketch.</desc>
    <defs>
        <polygon id="path-1" points="0 15.99985 0 0 32 0 32 15.99985 32 31.9997 0 31.9997"></polygon>
    </defs>
    <g id="Symbols" stroke="none" stroke-width="1" fill="none" fill-rule="evenodd">
        <g id="icon_Attention_day">
            <g id="Attention_night">
                <path d="M13.4897,5.8115 C13.4897,5.2705 13.7607,4.9975 14.3017,4.9995 L17.7887,4.9995 C18.3297,4.9975 18.6017,5.2705 18.6017,5.8115 L18.6017,14.4575 C18.6017,14.5975 18.5577,14.8535 18.4677,15.2245 C18.3767,15.5945 18.2817,15.9865 18.1807,16.3965 C18.0807,16.8075 17.9757,17.1845 17.8647,17.5245 C17.7547,17.8665 17.6897,18.0855 17.6697,18.1865 C17.5697,18.4665 17.4637,18.6715 17.3537,18.8015 C17.2437,18.9325 17.0477,18.9985 16.7687,18.9985 L15.3247,18.9985 C15.0437,18.9985 14.8477,18.9325 14.7377,18.8015 C14.6277,18.6715 14.5227,18.4665 14.4227,18.1865 C14.3827,18.0855 14.3117,17.8665 14.2117,17.5245 C14.1117,17.1845 14.0107,16.8075 13.9107,16.3965 C13.8107,15.9865 13.7147,15.5945 13.6247,15.2245 C13.5357,14.8535 13.4897,14.5975 13.4897,14.4575 L13.4897,5.8115 Z M13.3087,23.4485 C13.3087,22.8275 13.3407,22.3355 13.3997,21.9745 C13.4607,21.6145 13.5797,21.3435 13.7607,21.1635 C13.9397,20.9825 14.2117,20.8675 14.5717,20.8175 C14.9337,20.7665 15.4157,20.7425 16.0157,20.7425 C16.6367,20.7425 17.1287,20.7665 17.4887,20.8175 C17.8507,20.8675 18.1247,20.9875 18.3157,21.1775 C18.5067,21.3695 18.6307,21.6445 18.6927,22.0045 C18.7537,22.3665 18.7827,22.8475 18.7827,23.4485 C18.7827,24.0695 18.7537,24.5615 18.6927,24.9225 C18.6307,25.2835 18.5067,25.5585 18.3157,25.7495 C18.1247,25.9395 17.8507,26.0595 17.4887,26.1095 C17.1287,26.1595 16.6367,26.1855 16.0157,26.1855 C15.4157,26.1855 14.9337,26.1595 14.5717,26.1095 C14.2117,26.0595 13.9397,25.9395 13.7607,25.7495 C13.5797,25.5585 13.4607,25.2835 13.3997,24.9225 C13.3407,24.5615 13.3087,24.0695 13.3087,23.4485 Z" id="Fill-1" fill="#414141"></path>
                <g id="Group-5">
                    <mask id="mask-2" fill="white">
                        <use xlink:href="#path-1"></use>
                    </mask>
                    <g id="Clip-4"></g>
                    <path d="M16,1.1567 C7.815,1.1567 1.157,7.8157 1.157,15.9997 C1.157,24.1847 7.815,30.8437 16,30.8437 C24.185,30.8437 30.844,24.1847 30.844,15.9997 C30.844,7.8157 24.185,1.1567 16,1.1567 M16,31.9997 C7.178,31.9997 0,24.8237 0,15.9997 C0,7.1777 7.178,-0.0003 16,-0.0003 C24.823,-0.0003 32,7.1777 32,15.9997 C32,24.8237 24.823,31.9997 16,31.9997" id="Fill-3" fill="#414141" mask="url(#mask-2)"></path>
                </g>
            </g>
        </g>
    </g>
</svg>