<svg width="28.754" height="28.754" viewBox="0 0 32 32"><circle cx="16" cy="16" r="15.5" fill="#414141" stroke="#F5F5F5"/><g fill="#F5F5F5"><path d="M17.752 8.509a1.778 1.778 0 1 0 0-3.556 1.778 1.778 0 0 0 0 3.556M17.91 17.559c.758-.01 1.026-.737 1.026-1.324l.373-5.677c.057-.802-.7-1.52-1.503-1.576-.8-.056-1.669.555-1.726 1.357l-.073 1.665-2.435.004a.816.816 0 0 0-.82.827c0 .46.265.8.725.8l2.448-.003-.1 1.369-3.75-.004a1.03 1.03 0 0 0-.989.704l-2.075 5.78s-.974-.347-1.453-.526c-.056-.023-.177.015-.197.072-.128.362-.207.567-.404 1.112l3.145 1.119a.468.468 0 0 0 .602-.283l1.961-5.416h5.245Z"/><path d="m20.014 12.624-.12 1.917c1.375.76 2.72 2.274 2.68 4.453-.054 3.064-2.414 5.055-5.06 5.06-2.78.005-4.426-2.047-4.896-3.742l-.83 2.182c1.107 1.84 3.33 3.28 5.707 3.3a6.824 6.824 0 0 0 6.9-6.822 6.858 6.858 0 0 0-4.381-6.348"/></g></svg>