<?xml version="1.0" encoding="UTF-8"?>
<svg width="32px" height="32px" viewBox="0 0 32 32" version="1.1" xmlns="http://www.w3.org/2000/svg" xmlns:xlink="http://www.w3.org/1999/xlink">
    <!-- Generator: Sketch 51.3 (57544) - http://www.bohemiancoding.com/sketch -->
    <title>Reservation_only_night</title>
    <desc>Created with Sketch.</desc>
    <defs>
        <polygon id="path-1" points="0 15.99985 0 0 32 0 32 15.99985 32 31.9997 0 31.9997"></polygon>
    </defs>
    <g id="Symbols" stroke="none" stroke-width="1" fill="none" fill-rule="evenodd">
        <g id="icon_Reservation_only_day">
            <g id="Reservation_only_night">
                <path d="M19.0107,17.8701 C18.7167,17.3671 18.2977,17.1991 17.7107,17.1571 L12.7987,16.9741 L11.4117,12.2791 C11.8897,11.2641 12.2407,9.6431 12.2027,8.9661 C12.0297,5.9041 8.4677,6.9701 8.3727,6.9871 C8.1807,7.0201 7.4517,7.2031 7.2927,7.2401 C6.9707,7.3141 6.9467,7.5621 7.0657,8.0821 L9.6947,21.6471 C9.7687,21.9441 9.9167,22.0001 10.1647,22.0001 L18.4887,22.0001 C19.3757,21.9501 20.0547,21.1681 20.0047,20.2811 C19.9677,19.6341 19.0827,17.9941 19.0107,17.8701" id="Fill-1" fill="#414141"></path>
                <polygon id="Fill-3" fill="#414141" points="16.292 8.8047 14.586 15.9997 15.61 15.9997 17.04 10.0147 25.194 11.9367 21.825 26.2297 13.67 24.3077 13.981 22.9997 12.947 22.9997 12.46 25.0557 22.573 27.4407 26.405 11.1887"></polygon>
                <g id="Group-7">
                    <mask id="mask-2" fill="white">
                        <use xlink:href="#path-1"></use>
                    </mask>
                    <g id="Clip-6"></g>
                    <path d="M16,1.1567 C7.815,1.1567 1.157,7.8157 1.157,15.9997 C1.157,24.1847 7.815,30.8437 16,30.8437 C24.185,30.8437 30.844,24.1847 30.844,15.9997 C30.844,7.8157 24.185,1.1567 16,1.1567 M16,31.9997 C7.178,31.9997 0,24.8237 0,15.9997 C0,7.1777 7.178,-0.0003 16,-0.0003 C24.823,-0.0003 32,7.1777 32,15.9997 C32,24.8237 24.823,31.9997 16,31.9997" id="Fill-5" fill="#414141" mask="url(#mask-2)"></path>
                </g>
            </g>
        </g>
    </g>
</svg>