<?xml version="1.0" encoding="utf-8" ?>
<svg xmlns="http://www.w3.org/2000/svg" xmlns:xlink="http://www.w3.org/1999/xlink" width="32" height="33">
	<path fill="rgb(65,65,65)" stroke="none" transform="translate(7.33203 20.1436)" d="M1.859 0C2.886 0 3.719 0.832 3.719 1.859C3.719 2.886 2.886 3.719 1.859 3.719C0.832 3.719 0 2.886 0 1.859C0 0.832 0.832 0 1.859 0"/>
	<path fill="rgb(65,65,65)" stroke="none" transform="translate(19.4453 20.1436)" d="M1.859 0C2.886 0 3.718 0.832 3.718 1.859C3.718 2.886 2.886 3.719 1.859 3.719C0.833 3.719 0 2.886 0 1.859C0 0.832 0.833 0 1.859 0"/>
	<path fill="rgb(65,65,65)" stroke="none" transform="translate(5 12.0005)" d="M0 7.482C0 7.381 0.013 7.22 0.031 7.122L1.057 1.175C1.17 0.529 1.799 0 2.455 0L20.922 0C21.507 0 21.985 0.479 21.985 1.064L21.987 9.505L19.008 10.002C19.008 8.51 17.799 7.3 16.305 7.3C14.814 7.3 13.604 8.51 13.6 10L6.891 10C6.894 8.51 5.686 7.3 4.193 7.3C2.7 7.3 1.491 8.51 1.491 10.002L0.709 10.002C0.319 10.002 0 9.683 0 9.292L0 7.482ZM1.532 7.48C1.168 7.716 0.911 7.55 0.998 7.048L1.983 1.516C2.032 1.233 2.307 1.001 2.594 1.001L3.418 1.001C3.614 1.001 3.773 1.161 3.773 1.356L3.773 6.12L1.532 7.48ZM4.714 1.355C4.714 1.161 4.873 1.001 5.068 1.001L9.328 1.001C9.523 1.001 9.682 1.161 9.682 1.356L9.659 5.004L4.69 5.004L4.714 1.355ZM10.979 1.001C10.785 1.001 10.625 1.161 10.625 1.356L10.601 5.004L15.761 5.004L15.784 1.356C15.784 1.161 15.626 1.001 15.429 1.001L10.979 1.001ZM16.726 1.356C16.726 1.161 16.886 1.001 17.082 1.001L20.67 1.001C20.865 1.001 21.024 1.161 21.024 1.356L21.001 5.004L16.703 5.004L16.726 1.356Z" fill-rule="evenodd"/>
	<defs>
		<clipPath id="clip_0">
			<rect y="1" width="32" height="31.999702" clip-rule="evenodd"/>
		</clipPath>
	</defs>
	<g clip-path="url(#clip_0)">
		<path fill="rgb(65,65,65)" stroke="none" transform="translate(0 0.999756)" d="M16 1.157C7.815 1.157 1.157 7.816 1.157 16C1.157 24.185 7.815 30.844 16 30.844C24.185 30.844 30.844 24.185 30.844 16C30.844 7.816 24.185 1.157 16 1.157M16 32C7.178 32 0 24.824 0 16C0 7.178 7.178 0 16 0C24.823 0 32 7.178 32 16C32 24.824 24.823 32 16 32"/>
	</g>

</svg>