<?xml version="1.0" encoding="utf-8" ?>
<svg xmlns="http://www.w3.org/2000/svg" xmlns:xlink="http://www.w3.org/1999/xlink" width="32" height="33">
	<path fill="rgb(65,65,65)" stroke="none" transform="translate(5.73047 15.5428)" d="M10.2379 3.21C10.1529 3.152 9.99085 3.043 9.79685 2.911L4.94385 0L0.0908507 7.234C-0.0791493 7.487 -0.00314932 7.831 0.256851 7.99L1.28585 8.556C1.53085 8.705 1.84985 8.635 2.00885 8.396C2.86785 7.103 5.40585 3.397 5.46885 3.334C5.67085 3.132 5.94785 3.034 6.18485 3.191L8.41885 4.674C8.56485 4.771 8.65185 4.934 8.65085 5.108L8.62885 8.926C8.62685 9.213 8.85885 9.446 9.14685 9.446L10.1569 9.446C10.4419 9.446 10.6749 9.216 10.6749 8.93C10.6759 7.821 10.6789 5.231 10.6829 4.166C10.6849 3.755 10.5789 3.441 10.2379 3.21"/>
	<path fill="rgb(65,65,65)" stroke="none" transform="translate(15.707 7.19458)" d="M3.15144 2.52708C3.80244 1.38108 3.10244 0.0680824 1.76344 0.00208241C0.516439 -0.0589176 -0.452561 1.23108 0.220439 2.44508C0.922439 3.70908 2.55444 3.57908 3.15144 2.52708"/>
	<path fill="rgb(65,65,65)" stroke="none" transform="translate(8.55469 9.84192)" d="M3.07888 1.71911C3.17488 1.57211 3.33888 1.48411 3.51488 1.48511L4.84588 1.49111L4.86688 1.56311L3.14688 4.11511L1.96588 3.40611C2.32888 2.86311 2.82788 2.10311 3.07888 1.71911M7.30788 4.20011C7.40088 4.21611 7.40588 4.21611 7.44388 4.22811C7.45188 4.43911 7.44588 6.07411 7.44288 6.69211L6.13488 5.90711C6.58388 5.24911 7.12188 4.46411 7.30788 4.20011M10.9049 11.1171C10.3519 11.1031 10.0969 11.8081 10.0969 11.8081L8.51888 15.1451L17.6899 15.1451L14.5169 8.30911C13.8699 7.43411 13.3449 8.14111 13.3449 8.14111L12.4259 9.68111L8.83988 7.53111C8.83288 6.71411 8.82088 5.18211 8.82088 5.16411C8.82388 4.61511 8.82888 3.35311 8.82688 2.67311C8.82488 2.22111 8.67088 1.83811 8.17588 1.47711C7.71188 1.13811 7.28588 0.859112 6.58588 0.382112C6.22788 0.138112 5.80588 0.00711215 5.37288 0.00611215C4.51388 0.00511215 3.58388 -0.00288785 3.11988 0.00111215C2.93788 0.00211215 2.66588 0.145112 2.55988 0.302112C2.14988 0.905112 1.41288 1.98711 0.895883 2.76411L0.773883 2.69111C0.530883 2.54511 0.217883 2.62411 0.0728827 2.86511C-0.0721173 3.10811 0.00588266 3.42111 0.247883 3.56611L11.8849 10.5481C11.3839 11.1881 10.9049 11.1171 10.9049 11.1171"/>
	<defs>
		<clipPath id="clip_0">
			<rect y="1" width="32" height="31.999702" clip-rule="evenodd"/>
		</clipPath>
	</defs>
	<g clip-path="url(#clip_0)">
		<path fill="rgb(65,65,65)" stroke="none" transform="translate(0 0.999756)" d="M16 1.157C7.815 1.157 1.157 7.816 1.157 16C1.157 24.185 7.815 30.844 16 30.844C24.185 30.844 30.844 24.185 30.844 16C30.844 7.816 24.185 1.157 16 1.157M16 32C7.178 32 0 24.824 0 16C0 7.178 7.178 0 16 0C24.823 0 32 7.178 32 16C32 24.824 24.823 32 16 32"/>
	</g>

</svg>