<svg style="width:151.551px;transform:scaleX(-1)" viewBox="0 0 239.304 87"><g fill="#414141"><path fill="#FFF" stroke="#414141" stroke-width="6" d="M119.652 3H56.92C46.734 3 37.994 5.645 32.61 14.5L5.414 63.13C.204 72.55 3.704 84 15 84h104.653"/><path fill="#00A1AC" d="M119.652 81v-8H5.91c.294-.45-.909 8 9.09 8Z"/><path d="m29.37 16-18 32h21.36A5.44 5.44 0 0 0 38 44l7.31-26.12A1.46 1.46 0 0 0 43.88 16H29.37Z"/><ellipse cx="20.846" cy="58.859" rx="5.42" ry="4.55" transform="rotate(-25.99 20.846 58.859)"/></g><path fill="#FFF" stroke="#414141" stroke-width="6" d="M119.652 3h96.652q20 0 20 20v51q0 10-10 10H119.652"/><path fill="#00A1AC" d="M119.652 81v-8h113.743c-.294-.45.91 8-9.09 8Z"/></svg>